<?xml version="1.0" encoding="UTF-8"?>
<svg width="328px" height="105px" viewBox="0 0 328 105" version="1.1" xmlns="http://www.w3.org/2000/svg" xmlns:xlink="http://www.w3.org/1999/xlink">
    <title>pando-logo</title>
    <g id="pando-logo" stroke="none" stroke-width="1" fill="none" fill-rule="evenodd">
        <g id="Group">
            <path d="M35.8301734,65.3804789 C34.2181734,67.9394789 31.6251734,69.5244789 28.0531734,70.1334789 C21.6731734,71.2214789 17.7571734,71.7454789 16.3061734,71.7034789 C15.7231734,71.6724789 15.4121734,71.5404789 15.3721734,71.3114789 C15.1901734,70.2394789 14.8831734,68.6374789 14.4551734,66.5044789 C14.0251734,64.3714789 13.7191734,62.7694789 13.5371734,61.6974789 C12.0921734,53.2254789 11.4321734,48.8204789 11.5591734,48.4844789 C11.6251734,48.2624789 13.3651734,47.7564789 16.7751734,46.9634789 C19.7511734,46.2464789 21.8271734,45.7874789 23.0001734,45.5874789 C26.7771734,44.9434789 29.9421734,45.6384789 32.4951734,47.6714789 C34.9541734,49.6154789 36.5091734,52.5014789 37.1621734,56.3294789 C37.7761734,59.9274789 37.3311734,62.9444789 35.8301734,65.3804789 M46.7101734,54.1094789 C45.7481734,48.4704789 43.1741734,44.0774789 38.9881734,40.9304789 C34.7111734,37.7204789 29.7521734,36.5964789 24.1131734,37.5584789 C22.9131734,37.7634789 21.1231734,38.1214789 18.7421734,38.6324789 C16.3601734,39.1434789 14.5701734,39.5014789 13.3711734,39.7054789 C11.9671734,39.9454789 9.87817336,40.2884789 7.10517336,40.7344789 C4.33217336,41.1814789 2.25717336,41.5224789 0.878173361,41.7574789 C0.189173361,41.8754789 -0.0938266387,42.2124789 0.0271733613,42.7694789 L0.163173361,43.3364789 C2.30817336,52.3724789 4.05917336,60.8714789 5.41717336,68.8334789 C5.89617336,71.6404789 6.49317336,75.8724789 7.20717336,81.5274789 C7.92317336,87.1834789 8.51817336,91.4024789 8.99217336,94.1834789 C9.12717336,94.9744789 9.51317336,95.3154789 10.1511734,95.2064789 C10.5851734,95.1324789 11.2421734,94.9814789 12.1221734,94.7524789 C13.0021734,94.5234789 13.6721734,94.3704789 14.1311734,94.2914789 C14.6671734,94.2004789 15.4871734,94.1194789 16.5911734,94.0494789 C17.6951734,93.9794789 18.5161734,93.8984789 19.0511734,93.8074789 C19.5361734,93.7244789 19.7421734,93.4664789 19.6681734,93.0324789 C19.4371734,91.6794789 19.0081734,89.6654789 18.3811734,86.9884789 C17.7541734,84.3124789 17.3251734,82.2974789 17.0941734,80.9444789 C16.9161734,79.8984789 17.2351734,79.3054789 18.0511734,79.1664789 C19.5311734,78.9134789 21.7551734,78.5934789 24.7221734,78.2054789 C27.6891734,77.8184789 29.9001734,77.5004789 31.3551734,77.2524789 C37.2751734,76.2424789 41.5911734,73.6024789 44.3041734,69.3324789 C46.9301734,65.1804789 47.7331734,60.1074789 46.7101734,54.1094789" id="Fill-1" fill="#4783B7"></path>
            <path d="M83.8692734,60.4180789 C83.7432734,59.6780789 82.0292734,56.5560789 78.7272734,51.0530789 C75.5322734,45.7150789 73.3222734,42.2320789 72.0992734,40.6020789 C69.1152734,54.9770789 67.6772734,62.4840789 67.7862734,63.1210789 C67.9332734,63.9890789 68.9902734,64.3340789 70.9562734,64.1560789 C71.0622734,64.1650789 72.3142734,63.9640789 74.7132734,63.5550789 L78.6572734,62.8820789 C82.3062734,62.2600789 84.0432734,61.4390789 83.8692734,60.4180789 M105.311273,78.5060789 C105.363273,78.8120789 105.082273,79.0170789 104.470273,79.1220789 C103.985273,79.2050789 103.270273,79.2870789 102.326273,79.3690789 C101.381273,79.4510789 100.666273,79.5340789 100.182273,79.6170789 C99.6972734,79.6990789 98.9762734,79.8610789 98.0192734,80.1040789 C97.0622734,80.3450789 96.3422734,80.5080789 95.8572734,80.5900789 C95.1422734,80.7120789 93.9012734,78.9350789 92.1312734,75.2580789 C90.3622734,71.5810789 88.8992734,69.8150789 87.7422734,69.9600789 C86.7882734,70.0700789 84.3222734,70.4640789 80.3412734,71.1430789 L74.2932734,72.1750789 C70.0822734,72.8930789 67.6872734,73.3280789 67.1092734,73.4790789 C66.2032734,73.7110789 65.5632734,75.8440789 65.1862734,79.8730789 C64.8102734,83.9030789 64.3412734,85.9650789 63.7802734,86.0610789 L55.1672734,87.5300789 C54.6562734,87.6170789 54.3712734,87.4820789 54.3102734,87.1250789 C54.2662734,86.8700789 54.3472734,86.2650789 54.5522734,85.3110789 L59.5572734,58.0640789 C59.9952734,55.8620789 61.3782734,49.4950789 63.7042734,38.9610789 C64.1402734,37.2070789 64.6902734,34.5780789 65.3542734,31.0770789 C65.4952734,30.0550789 65.7442734,29.5140789 66.1012734,29.4530789 C66.5862734,29.3700789 67.3112734,29.3120789 68.2782734,29.2780789 C69.2432734,29.2460789 69.9682734,29.1870789 70.4532734,29.1040789 C70.9122734,29.0260789 71.5962734,28.8370789 72.5042734,28.5380789 C73.4112734,28.2390789 74.0822734,28.0520789 74.5162734,27.9790789 C74.7452734,27.9390789 75.1442734,28.3570789 75.7142734,29.2310789 C76.5712734,30.5560789 80.9072734,37.7350789 88.7232734,50.7660789 C99.7512734,69.0810789 105.280273,78.3270789 105.311273,78.5060789" id="Fill-3" fill="#DB3061"></path>
            <path d="M148.854673,17.1519789 C149.354673,20.0869789 150.007673,24.5319789 150.812673,30.4869789 C151.618673,36.4429789 152.273673,40.9009789 152.778673,43.8599789 C153.253673,46.6419789 153.988673,50.8039789 154.986673,56.3449789 C155.984673,61.8869789 156.720673,66.0489789 157.194673,68.8309789 C157.338673,69.6729789 157.090673,70.1479789 156.453673,70.2569789 C156.070673,70.3219789 155.489673,70.3809789 154.710673,70.4359789 C153.932673,70.4889789 153.351673,70.5489789 152.969673,70.6149789 C152.560673,70.6839789 151.941673,70.8289789 151.112673,71.0489789 C150.283673,71.2689789 149.665673,71.4139789 149.256673,71.4839789 C148.797673,71.5619789 148.176673,71.2349789 147.395673,70.5019789 C140.617673,64.0149789 130.370673,54.3659789 116.656673,41.5509789 C114.537673,39.6019789 113.316673,38.5229789 112.992673,38.3159789 C112.737673,38.3599789 112.698673,38.9039789 112.877673,39.9499789 C113.547673,43.8809789 114.617673,49.7709789 116.087673,57.6219789 C117.558673,65.4729789 118.628673,71.3629789 119.298673,75.2929789 C119.442673,76.1349789 119.258673,76.5999789 118.748673,76.6869789 C118.314673,76.7609789 117.644673,76.8359789 116.738673,76.9109789 C115.831673,76.9869789 115.162673,77.0619789 114.728673,77.1359789 C114.269673,77.2149789 113.592673,77.3689789 112.700673,77.5999789 C111.807673,77.8309789 111.130673,77.9859789 110.671673,78.0639789 C110.033673,78.1729789 109.671673,77.9729789 109.584673,77.4619789 C109.105673,74.6549789 108.518673,70.4019789 107.822673,64.7039789 C107.126673,59.0059789 106.536673,54.7399789 106.053673,51.9079789 C105.526673,48.8199789 104.463673,43.2769789 102.862673,35.2769789 C102.454673,33.1939789 101.791673,30.0759789 100.874673,25.9249789 L100.750673,25.4339789 C100.660673,25.0559789 100.931673,24.7989789 101.564673,24.6649789 C103.219673,24.3579789 104.512673,24.0839789 105.443673,23.8459789 C105.796673,23.7599789 106.455673,23.5429789 107.420673,23.1939789 C108.235673,22.8979789 108.886673,22.7079789 109.371673,22.6249789 C109.601673,22.5859789 110.059673,22.8889789 110.747673,23.5329789 C117.991673,30.5959789 129.020673,41.0579789 143.832673,54.9189789 C144.481673,55.4909789 145.076673,55.9809789 145.618673,56.3869789 C145.613673,55.2849789 145.286673,52.8189789 144.633673,48.9919789 C144.067673,45.6739789 143.097673,40.7189789 141.723673,34.1249789 C140.349673,27.5319789 139.382673,22.5889789 138.820673,19.2969789 C138.677673,18.4549789 138.859673,17.9899789 139.370673,17.9029789 C139.830673,17.8249789 140.531673,17.7439789 141.476673,17.6619789 C142.420673,17.5789789 143.123673,17.4989789 143.582673,17.4209789 C144.066673,17.3389789 144.787673,17.1759789 145.744673,16.9339789 C146.701673,16.6919789 147.421673,16.5299789 147.907673,16.4469789 C148.442673,16.3559789 148.758673,16.5909789 148.854673,17.1519789" id="Fill-5" fill="#4783B7"></path>
            <path d="M196.749173,50.1490789 C195.392173,52.5070789 193.707173,54.2530789 191.694173,55.3830789 C190.062173,56.2920789 187.780173,56.9970789 184.845173,57.4970789 C180.711173,58.2020789 178.850173,58.5330789 179.263173,58.4880789 C176.174173,58.8570789 174.548173,58.5580789 174.382173,57.5870789 C174.051173,55.6490789 173.511173,52.7470789 172.760173,48.8820789 C172.009173,45.0190789 171.469173,42.1180789 171.138173,40.1780789 C170.803173,38.2130789 170.345173,35.2650789 169.767173,31.3320789 C169.188173,27.3990789 168.731173,24.4510789 168.396173,22.4850789 C168.238173,21.5570789 169.598173,20.7650789 172.460173,20.1090789 C172.494173,20.1000789 172.537173,20.0890789 172.594173,20.0760789 C172.546173,20.0870789 172.507173,20.0980789 172.460173,20.1090789 C171.992173,20.2340789 173.864173,19.9390789 178.081173,19.2190789 C183.541173,18.2880789 188.212173,19.3420789 192.093173,22.3840789 C195.824173,25.3190789 198.159173,29.5430789 199.099173,35.0550789 C200.061173,40.6950789 199.277173,45.7270789 196.749173,50.1490789 M208.477173,33.4550789 C207.772173,29.3220789 206.293173,25.5030789 204.042173,22.0010789 C201.640173,18.2340789 198.678173,15.4180789 195.156173,13.5500789 C190.247173,10.9470789 183.365173,10.4000789 174.510173,11.9100789 C173.592173,12.0670789 172.241173,12.3110789 170.459173,12.6400789 C168.677173,12.9710789 167.352173,13.2100789 166.485173,13.3570789 C165.541173,13.5190789 164.129173,13.7470789 162.249173,14.0410789 C160.369173,14.3350789 158.956173,14.5630789 158.012173,14.7240789 C157.349173,14.8370789 157.062173,15.1610789 157.154173,15.6970789 C157.659173,18.6580789 158.520173,23.0930789 159.739173,29.0040789 C160.957173,34.9160789 161.818173,39.3520789 162.323173,42.3120789 C162.802173,45.1190789 163.411173,49.3480789 164.152173,54.9990789 C164.893173,60.6500789 165.500173,64.8670789 165.974173,67.6490789 C166.083173,68.2870789 166.456173,68.5510789 167.094173,68.4420789 C168.294173,68.2370789 170.091173,67.8780789 172.485173,67.3650789 C174.879173,66.8530789 176.676173,66.4930789 177.875173,66.2880789 C179.202173,66.0620789 181.207173,65.7730789 183.892173,65.4200789 C186.576173,65.0670789 188.582173,64.7770789 189.909173,64.5510789 C196.850173,63.3670789 202.056173,59.5520789 205.525173,53.1040789 C208.716173,47.1760789 209.700173,40.6270789 208.477173,33.4550789" id="Fill-7" fill="#4783B7"></path>
            <path d="M66.8341734,22.8853789 C67.5491734,25.1833789 66.2661734,27.6253789 63.9681734,28.3403789 C61.6701734,29.0543789 59.2281734,27.7713789 58.5131734,25.4733789 C57.7981734,23.1763789 59.0821734,20.7343789 61.3791734,20.0193789 C63.6771734,19.3043789 66.1191734,20.5873789 66.8341734,22.8853789" id="Fill-9" fill="#DB3061"></path>
            <path d="M80.2652734,20.5948789 C80.9792734,22.8928789 79.6962734,25.3348789 77.3992734,26.0498789 C75.1012734,26.7638789 72.6592734,25.4808789 71.9442734,23.1828789 C71.2292734,20.8858789 72.5132734,18.4438789 74.8102734,17.7288789 C77.1082734,17.0138789 79.5502734,18.2968789 80.2652734,20.5948789" id="Fill-11" fill="#DB3061"></path>
            <path d="M313.641273,80.6270789 L174.278273,104.394079 L172.738273,95.3650789 C171.144273,86.0200789 177.428273,77.1520789 186.773273,75.5590789 L326.137273,51.7920789 L327.676273,60.8200789 C329.270273,70.1660789 322.986273,79.0330789 313.641273,80.6270789" id="Fill-13" fill="#DB3061"></path>
            <path d="M196.077773,91.1749789 C196.090773,91.2519789 196.090773,91.3669789 196.077773,91.5189789 C196.064773,91.7099789 196.056773,91.8269789 196.054773,91.8659789 C196.068773,92.0439789 196.078773,92.3039789 196.082773,92.6479789 C196.072773,92.7379789 196.017773,92.7929789 195.915773,92.8109789 C195.867773,92.8189789 195.773773,92.8249789 195.634773,92.8269789 C195.023773,92.8429789 194.093773,92.9569789 192.843773,93.1699789 C192.490773,93.2299789 191.958773,93.3309789 191.249773,93.4709789 C190.540773,93.6129789 190.009773,93.7119789 189.656773,93.7729789 C189.495773,93.7999789 189.404773,93.7429789 189.380773,93.6039789 C189.287773,93.0619789 189.179773,92.2409789 189.054773,91.1429789 C188.929773,90.0449789 188.820773,89.2239789 188.727773,88.6819789 C188.633773,88.1289789 188.429773,87.1049789 188.114773,85.6089789 C188.038773,85.2219789 187.913773,84.6479789 187.737773,83.8839789 L187.713773,83.7849789 C187.689773,83.6739789 187.743773,83.6069789 187.873773,83.5849789 C188.212773,83.5269789 188.723773,83.4499789 189.404773,83.3539789 C190.086773,83.2569789 190.597773,83.1789789 190.935773,83.1219789 C191.260773,83.0669789 191.744773,82.9739789 192.387773,82.8449789 C193.031773,82.7159789 193.514773,82.6229789 193.839773,82.5669789 C194.067773,82.5289789 194.202773,82.5779789 194.246773,82.7149789 C194.457773,83.3379789 194.575773,83.7259789 194.601773,83.8809789 C194.620773,83.9929789 194.577773,84.0569789 194.471773,84.0759789 C194.059773,84.1459789 193.431773,84.2289789 192.588773,84.3249789 C191.744773,84.4219789 191.111773,84.5059789 190.690773,84.5779789 C190.292773,84.6449789 190.051773,84.7419789 189.965773,84.8659789 C189.879773,84.9899789 189.872773,85.2629789 189.944773,85.6849789 L190.129773,86.7679789 C190.179773,87.0639789 190.216773,87.2339789 190.238773,87.2789789 C190.308773,87.4229789 190.446773,87.4759789 190.655773,87.4409789 C190.713773,87.4309789 190.795773,87.4139789 190.900773,87.3909789 C191.012773,87.3719789 191.094773,87.3579789 191.147773,87.3489789 C192.097773,87.1869789 192.947773,87.0249789 193.697773,86.8619789 C193.991773,86.8009789 194.336773,86.7169789 194.731773,86.6109789 C194.831773,86.5839789 194.889773,86.6179789 194.906773,86.7159789 C194.932773,86.8709789 194.954773,87.1109789 194.973773,87.4369789 C194.991773,87.7629789 195.014773,88.0059789 195.041773,88.1659789 C195.056773,88.2539789 194.991773,88.3089789 194.846773,88.3339789 C194.787773,88.3439789 194.568773,88.3629789 194.190773,88.3939789 C193.913773,88.4109789 193.301773,88.4999789 192.351773,88.6619789 C191.552773,88.7989789 191.047773,88.8939789 190.837773,88.9499789 C190.646773,88.9979789 190.552773,89.1179789 190.555773,89.3119789 C190.555773,89.2779789 190.589773,89.4629789 190.658773,89.8699789 L190.841773,90.9459789 C190.928773,91.4499789 191.058773,91.7519789 191.235773,91.8509789 C191.373773,91.9319789 191.684773,91.9309789 192.169773,91.8479789 L192.967773,91.7049789 C193.306773,91.6479789 194.248773,91.4259789 195.793773,91.0449789 L195.901773,91.0179789 C195.996773,90.9919789 196.055773,91.0439789 196.077773,91.1749789" id="Fill-15" fill="#FFFFFE"></path>
            <path d="M200.804373,84.8497789 C200.895373,85.3817789 200.941373,85.8737789 200.943373,86.3217789 C200.947373,86.4347789 200.908373,86.4987789 200.825373,86.5137789 C200.724373,86.5307789 200.568373,86.5467789 200.359373,86.5597789 C200.149373,86.5727789 199.991373,86.5887789 199.885373,86.6067789 C199.274373,86.7107789 198.913373,86.9497789 198.802373,87.3227789 C198.736373,87.5487789 198.759373,87.9907789 198.871373,88.6487789 L199.008373,89.4497789 C199.054373,89.7207789 199.135373,90.1297789 199.251373,90.6777789 C199.367373,91.2267789 199.449373,91.6377789 199.495373,91.9077789 C199.517373,92.0387789 199.472373,92.1137789 199.361373,92.1327789 C199.211373,92.1577789 198.983373,92.1947789 198.677373,92.2427789 C198.370373,92.2887789 198.142373,92.3257789 197.992373,92.3507789 C197.881373,92.3697789 197.815373,92.3187789 197.794373,92.1977789 C197.727373,91.8067789 197.633373,91.2147789 197.510373,90.4207789 C197.387373,89.6297789 197.292373,89.0367789 197.225373,88.6387789 C197.021373,87.4417789 196.745373,86.4997789 196.398373,85.8097789 C196.382373,85.7737789 196.372373,85.7457789 196.369373,85.7267789 C196.359373,85.6667789 196.383373,85.6207789 196.442373,85.5857789 C196.618373,85.5367789 196.866373,85.4637789 197.183373,85.3707789 C197.690373,85.1837789 197.924373,85.0947789 197.885373,85.1007789 C197.962373,85.0877789 198.038373,85.2217789 198.111373,85.5037789 C198.184373,85.7847789 198.251373,85.9197789 198.315373,85.9097789 C198.325373,85.9077789 198.336373,85.9007789 198.348373,85.8887789 C198.526373,85.7287789 198.703373,85.5697789 198.880373,85.4097789 C199.075373,85.2417789 199.282373,85.1057789 199.499373,85.0047789 C199.678373,84.9137789 199.915373,84.8447789 200.210373,84.7937789 C200.588373,84.7297789 200.786373,84.7477789 200.804373,84.8497789" id="Fill-17" fill="#FFFFFE"></path>
            <path d="M205.300473,81.5181789 C205.310473,81.5761789 205.272473,81.6171789 205.186473,81.6421789 C204.953473,81.7061789 204.722473,81.7681789 204.493473,81.8281789 C204.223473,81.9131789 204.029473,82.0461789 203.910473,82.2261789 C203.717473,82.5241789 203.709473,83.1951789 203.887473,84.2421789 C204.047473,84.2151789 204.300473,84.1761789 204.646473,84.1271789 C204.991473,84.0781789 205.251473,84.0391789 205.425473,84.0091789 C205.542473,83.9891789 205.608473,84.0221789 205.623473,84.1101789 C205.646473,84.2461789 205.685473,84.4471789 205.740473,84.7141789 C205.796473,84.9811789 205.835473,85.1811789 205.857473,85.3111789 C205.873473,85.4041789 205.832473,85.4571789 205.735473,85.4741789 C205.566473,85.5021789 205.308473,85.5391789 204.961473,85.5801789 C204.613473,85.6221789 204.358473,85.6561789 204.194473,85.6851789 L204.564473,87.8581789 C204.622473,88.1971789 204.721473,88.7081789 204.863473,89.3921789 C205.005473,90.0771789 205.104473,90.5871789 205.162473,90.9261789 C205.184473,91.0571789 205.147473,91.1301789 205.050473,91.1471789 L203.720473,91.3741789 C203.594473,91.3951789 203.518473,91.3321789 203.492473,91.1821789 L202.640473,86.1821789 C202.618473,86.0521789 202.459473,86.0131789 202.165473,86.0681789 C201.846473,86.1271789 201.675473,86.1451789 201.650473,86.1181789 C201.633473,86.1061789 201.610473,86.0181789 201.582473,85.8531789 C201.564473,85.7471789 201.532473,85.5891789 201.487473,85.3801789 C201.441473,85.1711789 201.409473,85.0141789 201.391473,84.9061789 C201.374473,84.8061789 201.670473,84.6851789 202.279473,84.5461789 C202.212473,84.2391789 202.161473,83.9871789 202.128473,83.7931789 C201.982473,82.9361789 202.028473,82.2821789 202.265473,81.8331789 C202.476473,81.4281789 202.824473,81.0801789 203.314473,80.7881789 C203.752473,80.5231789 204.223473,80.3481789 204.727473,80.2621789 C204.775473,80.2541789 204.814473,80.2741789 204.842473,80.3241789 C204.848473,80.3331789 204.926473,80.5311789 205.074473,80.9161789 C205.222473,81.3021789 205.297473,81.5021789 205.300473,81.5181789" id="Fill-19" fill="#FFFFFE"></path>
            <path d="M212.493273,86.2369789 C212.391273,85.6409789 212.127273,85.1599789 211.701273,84.7929789 C211.249273,84.3969789 210.733273,84.2489789 210.152273,84.3479789 C209.571273,84.4469789 209.124273,84.7569789 208.815273,85.2789789 C208.516273,85.7779789 208.417273,86.3239789 208.518273,86.9149789 C208.618273,87.5009789 208.891273,87.9779789 209.338273,88.3449789 C209.802273,88.7299789 210.325273,88.8719789 210.907273,88.7729789 C211.473273,88.6759789 211.909273,88.3659789 212.213273,87.8399789 C212.497273,87.3479789 212.592273,86.8129789 212.493273,86.2369789 M213.828273,82.8829789 C213.831273,82.9029789 213.831273,82.9479789 213.828273,83.0169789 C213.828273,84.1589789 213.898273,85.1329789 214.035273,85.9359789 C214.043273,85.9849789 214.288273,87.0619789 214.772273,89.1679789 L214.797273,89.2689789 C214.826273,89.4079789 214.774273,89.4889789 214.640273,89.5119789 C214.507273,89.5339789 214.309273,89.5849789 214.046273,89.6629789 C213.782273,89.7399789 213.585273,89.7889789 213.453273,89.8119789 C213.362273,89.8269789 213.263273,89.6709789 213.157273,89.3399789 C213.050273,89.0089789 212.975273,88.8459789 212.932273,88.8529789 C212.903273,88.8589789 212.788273,88.9749789 212.587273,89.2049789 C212.341273,89.4849789 212.105273,89.7079789 211.879273,89.8709789 C211.529273,90.1299789 211.163273,90.2929789 210.780273,90.3579789 C209.841273,90.5179789 208.984273,90.2779789 208.211273,89.6359789 C207.479273,89.0239789 207.031273,88.2399789 206.868273,87.2849789 C206.685273,86.2099789 206.841273,85.2689789 207.337273,84.4609789 C207.856273,83.6199789 208.642273,83.1089789 209.693273,82.9299789 C210.434273,82.8029789 211.125273,82.9499789 211.764273,83.3689789 C211.864273,83.4519789 212.016273,83.5709789 212.222273,83.7259789 C212.239273,83.7369789 212.254273,83.7419789 212.269273,83.7399789 C212.298273,83.7349789 212.313273,83.5739789 212.314273,83.2599789 C212.316273,82.9459789 212.358273,82.7829789 212.440273,82.7689789 C212.571273,82.7469789 212.822273,82.7399789 213.192273,82.7519789 C213.604273,82.7709789 213.817273,82.8159789 213.828273,82.8829789" id="Fill-21" fill="#FFFFFE"></path>
            <path d="M222.806273,87.8580789 C222.837273,88.0380789 222.801273,88.1350789 222.700273,88.1520789 C222.549273,88.1780789 222.322273,88.2150789 222.015273,88.2620789 C221.709273,88.3080789 221.481273,88.3450789 221.331273,88.3710789 C221.210273,88.3910789 221.135273,88.3230789 221.108273,88.1630789 C221.068273,87.9290789 221.017273,87.5780789 220.954273,87.1050789 C220.890273,86.6320789 220.839273,86.2770789 220.799273,86.0390789 C220.761273,85.8170789 220.694273,85.4810789 220.600273,85.0290789 C220.506273,84.5800789 220.439273,84.2410789 220.400273,84.0130789 C220.252273,83.1410789 219.766273,82.7750789 218.943273,82.9160789 C218.676273,82.9620789 218.349273,83.1540789 217.964273,83.4940789 C217.553273,83.8580789 217.367273,84.1600789 217.407273,84.3960789 L218.143273,88.7120789 C218.167273,88.8530789 218.129273,88.9320789 218.027273,88.9490789 C217.876273,88.9750789 217.651273,89.0110789 217.350273,89.0580789 C217.049273,89.1030789 216.823273,89.1390789 216.673273,89.1650789 C216.561273,89.1840789 216.494273,89.1280789 216.472273,88.9970789 L215.874273,85.4870789 C215.776273,84.9160789 215.537273,83.7060789 215.158273,81.8560789 C215.049273,81.2820789 214.863273,80.4350789 214.597273,79.3200789 C214.578273,79.2630789 214.567273,79.2240789 214.563273,79.2060789 C214.549273,79.1230789 214.569273,79.0670789 214.624273,79.0380789 C214.702273,78.9940789 214.973273,78.9340789 215.438273,78.8550789 C215.539273,78.8370789 215.689273,78.7930789 215.886273,78.7210789 C216.083273,78.6510789 216.228273,78.6080789 216.320273,78.5910789 C216.383273,78.5810789 216.422273,78.6230789 216.438273,78.7130789 C216.515273,79.1690789 216.615273,79.8560789 216.734273,80.7760789 C216.853273,81.6940789 216.952273,82.3820789 217.030273,82.8370789 C217.049273,82.9500789 217.077273,83.0040789 217.118273,83.0020789 C217.329273,82.7520789 217.606273,82.4460789 217.948273,82.0830789 C218.372273,81.7060789 218.849273,81.4740789 219.376273,81.3840789 C220.287273,81.2290789 220.961273,81.3930789 221.397273,81.8770789 C221.712273,82.2320789 221.943273,82.8390789 222.090273,83.7030789 C222.116273,83.8520789 222.152273,84.0850789 222.198273,84.3980789 C222.244273,84.7120789 222.280273,84.9440789 222.305273,85.0940789 C222.358273,85.4050789 222.442273,85.8660789 222.556273,86.4810789 C222.671273,87.0940789 222.754273,87.5530789 222.806273,87.8580789" id="Fill-23" fill="#FFFFFE"></path>
            <path d="M227.610473,80.2779789 C227.701473,80.8099789 227.747473,81.3019789 227.748473,81.7499789 C227.753473,81.8639789 227.714473,81.9279789 227.632473,81.9419789 C227.530473,81.9589789 227.374473,81.9759789 227.165473,81.9879789 C226.955473,82.0009789 226.797473,82.0169789 226.691473,82.0349789 C226.080473,82.1389789 225.719473,82.3789789 225.609473,82.7509789 C225.543473,82.9769789 225.566473,83.4189789 225.678473,84.0769789 L225.814473,84.8779789 C225.860473,85.1489789 225.942473,85.5579789 226.057473,86.1069789 C226.173473,86.6549789 226.255473,87.0659789 226.301473,87.3359789 C226.323473,87.4669789 226.278473,87.5419789 226.167473,87.5609789 C226.017473,87.5869789 225.789473,87.6239789 225.483473,87.6709789 C225.176473,87.7169789 224.948473,87.7539789 224.798473,87.7789789 C224.687473,87.7989789 224.621473,87.7469789 224.601473,87.6259789 C224.534473,87.2349789 224.439473,86.6429789 224.316473,85.8499789 C224.193473,85.0589789 224.099473,84.4649789 224.031473,84.0669789 C223.827473,82.8699789 223.551473,81.9279789 223.204473,81.2379789 C223.189473,81.2019789 223.179473,81.1739789 223.175473,81.1549789 C223.165473,81.0949789 223.190473,81.0489789 223.248473,81.0139789 C223.424473,80.9649789 223.671473,80.8929789 223.989473,80.7989789 C224.496473,80.6119789 224.730473,80.5229789 224.691473,80.5299789 C224.769473,80.5159789 224.844473,80.6509789 224.917473,80.9319789 C224.990473,81.2139789 225.058473,81.3489789 225.121473,81.3379789 C225.130473,81.3359789 225.142473,81.3289789 225.154473,81.3169789 C225.332473,81.1569789 225.509473,80.9979789 225.686473,80.8389789 C225.882473,80.6709789 226.088473,80.5349789 226.305473,80.4329789 C226.485473,80.3419789 226.722473,80.2729789 227.017473,80.2219789 C227.395473,80.1579789 227.593473,80.1759789 227.610473,80.2779789" id="Fill-25" fill="#FFFFFE"></path>
            <path d="M235.549973,79.1632789 C235.610973,79.5172789 235.686973,80.0542789 235.779973,80.7732789 C235.872973,81.4932789 235.949973,82.0322789 236.010973,82.3902789 C236.070973,82.7442789 236.172973,83.2712789 236.313973,83.9722789 C236.455973,84.6742789 236.556973,85.2012789 236.617973,85.5552789 C236.633973,85.6512789 236.598973,85.7232789 236.511973,85.7672789 C236.473973,85.7842789 235.983973,85.8712789 235.038973,86.0332789 C234.981973,86.0422789 234.914973,85.8672789 234.840973,85.5072789 C234.766973,85.1452789 234.707973,84.9692789 234.664973,84.9762789 C234.639973,84.9802789 234.607973,85.0072789 234.566973,85.0602789 C233.877973,85.8992789 233.137973,86.3872789 232.347973,86.5222789 C231.277973,86.7052789 230.503973,86.4382789 230.027973,85.7212789 C229.733973,85.2782789 229.478973,84.4342789 229.266973,83.1882789 C229.074973,82.0652789 229.002973,81.0982789 229.048973,80.2872789 C229.059973,80.0902789 229.123973,79.9832789 229.239973,79.9632789 C229.380973,79.9392789 229.591973,79.9062789 229.873973,79.8632789 C230.155973,79.8202789 230.365973,79.7862789 230.506973,79.7622789 C230.603973,79.7462789 230.661973,79.7912789 230.679973,79.8962789 C230.711973,80.0862789 230.734973,80.4072789 230.746973,80.8572789 C230.758973,81.3392789 230.778973,81.6762789 230.806973,81.8722789 C230.841973,82.1652789 230.889973,82.4872789 230.948973,82.8342789 C231.093973,83.6832789 231.251973,84.2412789 231.421973,84.5112789 C231.718973,84.9992789 232.225973,85.1822789 232.943973,85.0592789 C233.248973,85.0072789 233.584973,84.7952789 233.949973,84.4242789 C234.336973,84.0342789 234.512973,83.6932789 234.477973,83.4002789 C234.439973,83.0322789 234.233973,81.7512789 233.859973,79.5562789 C233.819973,79.3192789 233.897973,79.1842789 234.096973,79.1502789 L235.295973,78.9452789 C235.436973,78.9212789 235.520973,78.9932789 235.549973,79.1632789" id="Fill-27" fill="#FFFFFE"></path>
            <path d="M244.906873,84.2017789 C244.924873,84.3077789 244.885873,84.3687789 244.788873,84.3857789 C244.628873,84.4127789 244.388873,84.4517789 244.071873,84.5007789 C243.752873,84.5487789 243.513873,84.5877789 243.354873,84.6147789 C243.267873,84.6297789 243.211873,84.5667789 243.187873,84.4277789 C243.147873,84.1897789 243.093873,83.8267789 243.024873,83.3407789 C242.956873,82.8537789 242.902873,82.4887789 242.861873,82.2467789 C242.827873,82.0537789 242.775873,81.7637789 242.705873,81.3797789 C242.634873,80.9947789 242.582873,80.7067789 242.549873,80.5127789 C242.455873,79.9607789 242.308873,79.5837789 242.110873,79.3847789 C241.870873,79.1457789 241.488873,79.0707789 240.966873,79.1597789 C240.722873,79.2017789 240.409873,79.3947789 240.025873,79.7397789 C239.618873,80.1027789 239.433873,80.3957789 239.471873,80.6177789 L240.215873,84.9777789 C240.236873,85.0987789 240.199873,85.1677789 240.108873,85.1837789 C239.953873,85.2097789 239.719873,85.2477789 239.409873,85.2957789 C239.098873,85.3427789 238.865873,85.3807789 238.710873,85.4067789 C238.608873,85.4247789 238.548873,85.3767789 238.529873,85.2657789 C238.464873,84.8837789 238.372873,84.3087789 238.253873,83.5397789 C238.135873,82.7737789 238.043873,82.1947789 237.977873,81.8077789 C237.801873,80.7757789 237.529873,79.8427789 237.162873,79.0077789 C237.141873,78.9677789 237.128873,78.9357789 237.125873,78.9177789 C237.116873,78.8687789 237.142873,78.8297789 237.201873,78.7997789 C237.235873,78.7887789 237.505873,78.6977789 238.011873,78.5237789 C238.517873,78.3497789 238.782873,78.2607789 238.807873,78.2557789 C238.836873,78.2507789 238.862873,78.2867789 238.885873,78.3627789 C238.960873,78.6587789 239.067873,78.9517789 239.207873,79.2427789 C239.425873,79.0017789 239.714873,78.6977789 240.076873,78.3317789 C240.532873,77.9347789 240.997873,77.6967789 241.472873,77.6157789 C242.383873,77.4607789 243.050873,77.6177789 243.474873,78.0887789 C243.788873,78.4337789 244.018873,79.0407789 244.167873,79.9077789 C244.192873,80.0577789 244.227873,80.2877789 244.273873,80.5997789 C244.319873,80.9107789 244.354873,81.1447789 244.381873,81.3007789 C244.436873,81.6247789 244.524873,82.1077789 244.644873,82.7497789 C244.763873,83.3937789 244.850873,83.8767789 244.906873,84.2017789" id="Fill-29" fill="#FFFFFE"></path>
            <path d="M250.697873,79.4742789 C250.604873,78.9312789 250.378873,78.4962789 250.018873,78.1692789 C249.623873,77.8132789 249.162873,77.6802789 248.634873,77.7702789 C248.110873,77.8592789 247.722873,78.1402789 247.468873,78.6122789 C247.237873,79.0392789 247.168873,79.5222789 247.259873,80.0602789 C247.349873,80.5892789 247.577873,81.0182789 247.943873,81.3502789 C248.339873,81.7112789 248.796873,81.8482789 249.314873,81.7592789 C249.827873,81.6712789 250.214873,81.3912789 250.471873,80.9182789 C250.712873,80.4842789 250.787873,80.0022789 250.697873,79.4742789 M251.930873,76.1832789 C252.029873,76.7642789 252.174873,77.6392789 252.363873,78.8052789 C252.551873,79.9722789 252.695873,80.8462789 252.795873,81.4272789 C252.991873,82.5802789 252.889873,83.4732789 252.489873,84.1042789 C252.069873,84.7752789 251.290873,85.2072789 250.152873,85.4012789 C249.052873,85.5882789 248.127873,85.5312789 247.378873,85.2302789 C247.260873,85.1812789 247.197873,85.1322789 247.189873,85.0822789 C247.198873,85.1372789 247.209873,84.7652789 247.223873,83.9702789 C247.224873,83.8852789 247.251873,83.8382789 247.304873,83.8292789 C247.328873,83.8262789 247.362873,83.8312789 247.405873,83.8502789 C248.202873,84.1412789 248.967873,84.2262789 249.698873,84.1012789 C250.178873,84.0202789 250.557873,83.8462789 250.836873,83.5792789 C251.158873,83.2752789 251.280873,82.8922789 251.201873,82.4322789 C251.184873,82.3292789 251.135873,82.1042789 251.056873,81.7532789 C250.630873,82.4992789 250.002873,82.9422789 249.174873,83.0832789 C248.277873,83.2372789 247.486873,83.0402789 246.800873,82.4952789 C246.142873,81.9692789 245.736873,81.2532789 245.581873,80.3472789 C245.424873,79.4272789 245.557873,78.5982789 245.980873,77.8632789 C246.429873,77.0782789 247.107873,76.6082789 248.013873,76.4532789 C248.812873,76.3172789 249.500873,76.5182789 250.075873,77.0532789 C250.169873,77.1412789 250.234873,77.1822789 250.268873,77.1772789 C250.306873,77.1702789 250.318873,77.1232789 250.303873,77.0362789 C250.293873,76.9732789 250.271873,76.8732789 250.238873,76.7382789 C250.204873,76.6002789 250.181873,76.4982789 250.170873,76.4312789 C250.121873,76.1412789 250.125873,75.9902789 250.183873,75.9802789 C250.232873,75.9722789 250.501873,75.9712789 250.991873,75.9802789 C251.481873,75.9892789 251.749873,75.9992789 251.796873,76.0112789 C251.868873,76.0242789 251.913873,76.0812789 251.930873,76.1832789" id="Fill-31" fill="#FFFFFE"></path>
            <path d="M258.480073,77.5645789 C258.411073,77.1625789 258.192073,76.8325789 257.821073,76.5765789 C257.451073,76.3205789 257.068073,76.2265789 256.671073,76.2935789 C256.225073,76.3705789 255.859073,76.6175789 255.574073,77.0345789 C255.289073,77.4525789 255.184073,77.8845789 255.260073,78.3305789 C255.278073,78.4315789 255.373073,78.4665789 255.547073,78.4375789 C256.265073,78.3145789 257.110073,78.0965789 258.083073,77.7815789 C258.357073,77.6945789 258.490073,77.6225789 258.480073,77.5645789 M260.285073,77.7115789 C260.346073,78.0705789 260.231073,78.3365789 259.942073,78.5115789 C259.748073,78.6235789 258.272073,79.0225789 255.517073,79.7065789 C255.653073,80.1225789 255.950073,80.4455789 256.408073,80.6765789 C256.845073,80.8965789 257.286073,80.9685789 257.731073,80.8925789 C258.497073,80.7625789 259.157073,80.3945789 259.712073,79.7925789 C259.779073,79.7155789 259.846073,79.6395789 259.913073,79.5625789 C259.951073,79.5555789 259.978073,79.5575789 259.991073,79.5645789 C260.005073,79.5725789 260.125073,79.7265789 260.350073,80.0225789 C260.575073,80.3215789 260.690073,80.4815789 260.694073,80.5055789 C260.700073,80.5365789 260.670073,80.5985789 260.606073,80.6935789 C260.023073,81.5705789 259.174073,82.1055789 258.060073,82.2945789 C256.936073,82.4865789 255.983073,82.3035789 255.200073,81.7465789 C254.417073,81.1895789 253.930073,80.3515789 253.739073,79.2315789 C253.569073,78.2335789 253.740073,77.3105789 254.253073,76.4605789 C254.795073,75.5745789 255.556073,75.0495789 256.535073,74.8825789 C257.445073,74.7275789 258.262073,74.9315789 258.987073,75.4955789 C259.694073,76.0435789 260.126073,76.7815789 260.285073,77.7115789" id="Fill-33" fill="#FFFFFE"></path>
            <path d="M268.717473,80.1407789 C268.735473,80.2467789 268.696473,80.3077789 268.599473,80.3247789 C268.439473,80.3517789 268.199473,80.3907789 267.882473,80.4397789 C267.563473,80.4887789 267.324473,80.5267789 267.165473,80.5547789 C267.077473,80.5687789 267.022473,80.5067789 266.998473,80.3667789 C266.958473,80.1297789 266.904473,79.7667789 266.835473,79.2797789 C266.767473,78.7927789 266.712473,78.4287789 266.671473,78.1857789 C266.638473,77.9927789 266.586473,77.7037789 266.516473,77.3197789 C266.445473,76.9347789 266.393473,76.6457789 266.360473,76.4517789 C266.266473,75.8997789 266.119473,75.5227789 265.921473,75.3237789 C265.681473,75.0847789 265.299473,75.0107789 264.777473,75.0997789 C264.533473,75.1407789 264.220473,75.3337789 263.836473,75.6797789 C263.429473,76.0417789 263.244473,76.3357789 263.282473,76.5577789 L264.026473,80.9177789 C264.047473,81.0387789 264.010473,81.1067789 263.919473,81.1227789 C263.764473,81.1497789 263.530473,81.1867789 263.220473,81.2347789 C262.909473,81.2817789 262.676473,81.3197789 262.521473,81.3467789 C262.419473,81.3637789 262.359473,81.3167789 262.340473,81.2047789 C262.275473,80.8237789 262.183473,80.2477789 262.064473,79.4797789 C261.946473,78.7127789 261.854473,78.1347789 261.788473,77.7477789 C261.612473,76.7157789 261.340473,75.7817789 260.973473,74.9477789 C260.952473,74.9067789 260.939473,74.8757789 260.936473,74.8567789 C260.927473,74.8077789 260.953473,74.7687789 261.012473,74.7387789 C261.046473,74.7277789 261.316473,74.6367789 261.822473,74.4627789 C262.328473,74.2887789 262.593473,74.1997789 262.618473,74.1957789 C262.647473,74.1907789 262.673473,74.2257789 262.696473,74.3017789 C262.771473,74.5987789 262.878473,74.8917789 263.018473,75.1827789 C263.236473,74.9407789 263.525473,74.6367789 263.887473,74.2717789 C264.343473,73.8737789 264.808473,73.6367789 265.283473,73.5557789 C266.194473,73.3997789 266.861473,73.5577789 267.285473,74.0287789 C267.599473,74.3727789 267.829473,74.9797789 267.977473,75.8477789 C268.003473,75.9977789 268.038473,76.2277789 268.084473,76.5397789 C268.130473,76.8497789 268.165473,77.0847789 268.192473,77.2397789 C268.247473,77.5637789 268.335473,78.0477789 268.455473,78.6887789 C268.574473,79.3327789 268.661473,79.8157789 268.717473,80.1407789" id="Fill-35" fill="#FFFFFE"></path>
            <path d="M278.406873,77.2613789 C278.425873,77.3683789 278.439873,77.5153789 278.452873,77.7023789 C278.466873,77.9343789 278.476873,78.0843789 278.483873,78.1533789 C278.493873,78.2413789 278.495873,78.2953789 278.489873,78.3173789 C278.475873,78.3543789 278.435873,78.3963789 278.368873,78.4413789 C278.003873,78.6983789 277.394873,78.9003789 276.542873,79.0453789 C275.408873,79.2393789 274.753873,78.8223789 274.578873,77.7943789 C274.508873,77.3833789 274.412873,76.7623789 274.291873,75.9333789 C274.170873,75.1043789 274.074873,74.4843789 274.004873,74.0723789 C273.969873,73.8733789 273.852873,73.7823789 273.651873,73.8033789 C273.471873,73.8333789 273.294873,73.8613789 273.119873,73.8863789 C273.013873,73.8793789 272.929873,73.6893789 272.865873,73.3153789 C272.841873,73.1753789 272.825873,73.0263789 272.818873,72.8673789 C272.813873,72.7493789 272.878873,72.6653789 273.015873,72.6173789 C273.136873,72.5963789 273.255873,72.5733789 273.369873,72.5483789 C273.591873,72.5013789 273.685873,72.3833789 273.653873,72.1953789 C273.620873,72.0003789 273.564873,71.7053789 273.484873,71.3113789 C273.404873,70.9153789 273.347873,70.6183789 273.313873,70.4193789 C273.253873,70.0663789 273.291873,69.8783789 273.427873,69.8553789 C273.469873,69.8473789 273.938873,69.8443789 274.831873,69.8473789 C274.945873,69.8423789 275.010873,69.8863789 275.025873,69.9783789 C275.061873,70.1923789 275.101873,70.5133789 275.142873,70.9463789 C275.183873,71.3783789 275.221873,71.7003789 275.258873,71.9133789 C275.282873,72.0533789 275.359873,72.1133789 275.490873,72.0903789 L277.234873,71.7933789 C277.316873,71.7793789 277.363873,71.8003789 277.373873,71.8593789 C277.383873,71.9173789 277.390873,72.0113789 277.395873,72.1423789 C277.400873,72.2743789 277.407873,72.3713789 277.418873,72.4343789 C277.430873,72.5073789 277.452873,72.6183789 277.482873,72.7683789 C277.513873,72.9173789 277.534873,73.0273789 277.547873,73.1003789 C277.562873,73.1933789 277.502873,73.2493789 277.367873,73.2733789 C277.173873,73.3063789 276.878873,73.3433789 276.481873,73.3843789 C276.084873,73.4233789 275.788873,73.4593789 275.594873,73.4923789 C275.555873,73.4993789 275.551873,73.6433789 275.578873,73.9223789 C275.612873,74.2703789 275.683873,74.7553789 275.789873,75.3753789 L275.973873,76.4583789 C276.044873,76.8743789 276.133873,77.1573789 276.238873,77.3093789 C276.397873,77.5413789 276.659873,77.6263789 277.022873,77.5643789 C277.172873,77.5393789 277.387873,77.4693789 277.666873,77.3543789 C277.946873,77.2393789 278.156873,77.1693789 278.297873,77.1453789 C278.355873,77.1353789 278.391873,77.1743789 278.406873,77.2613789" id="Fill-37" fill="#FFFFFE"></path>
            <path d="M283.731073,73.2584789 C283.662073,72.8564789 283.443073,72.5264789 283.072073,72.2704789 C282.703073,72.0144789 282.319073,71.9204789 281.922073,71.9874789 C281.476073,72.0644789 281.111073,72.3114789 280.825073,72.7284789 C280.540073,73.1464789 280.435073,73.5774789 280.511073,74.0244789 C280.529073,74.1244789 280.625073,74.1604789 280.799073,74.1314789 C281.516073,74.0084789 282.361073,73.7904789 283.335073,73.4754789 C283.608073,73.3884789 283.741073,73.3164789 283.731073,73.2584789 M285.536073,73.4054789 C285.597073,73.7644789 285.483073,74.0304789 285.194073,74.2054789 C284.999073,74.3174789 283.523073,74.7164789 280.769073,75.4004789 C280.904073,75.8164789 281.201073,76.1394789 281.659073,76.3704789 C282.096073,76.5904789 282.537073,76.6624789 282.982073,76.5864789 C283.748073,76.4564789 284.409073,76.0884789 284.963073,75.4864789 C285.030073,75.4094789 285.097073,75.3334789 285.164073,75.2564789 C285.203073,75.2494789 285.229073,75.2504789 285.243073,75.2584789 C285.256073,75.2664789 285.376073,75.4194789 285.601073,75.7164789 C285.826073,76.0154789 285.941073,76.1754789 285.945073,76.1994789 C285.951073,76.2304789 285.921073,76.2924789 285.857073,76.3874789 C285.274073,77.2644789 284.425073,77.7984789 283.311073,77.9884789 C282.188073,78.1804789 281.234073,77.9974789 280.451073,77.4404789 C279.668073,76.8834789 279.181073,76.0454789 278.990073,74.9254789 C278.820073,73.9274789 278.991073,73.0044789 279.504073,72.1544789 C280.046073,71.2684789 280.807073,70.7424789 281.786073,70.5754789 C282.696073,70.4204789 283.514073,70.6254789 284.238073,71.1894789 C284.945073,71.7374789 285.377073,72.4754789 285.536073,73.4054789" id="Fill-39" fill="#FFFFFE"></path>
            <path d="M288.283373,70.0357789 C288.347373,70.4087789 288.419373,70.9757789 288.502373,71.7367789 C288.584373,72.4987789 288.658373,73.0677789 288.722373,73.4457789 C288.783373,73.8007789 288.880373,74.3277789 289.015373,75.0297789 C289.150373,75.7327789 289.246373,76.2577789 289.306373,76.6067789 C289.323373,76.7077789 289.289373,76.7667789 289.201373,76.7817789 L287.784373,77.0237789 C287.682373,77.0407789 287.616373,76.9507789 287.581373,76.7507789 C287.524373,76.4167789 287.447373,75.9127789 287.349373,75.2387789 C287.252373,74.5647789 287.174373,74.0587789 287.116373,73.7197789 C287.052373,73.3417789 286.927373,72.7807789 286.743373,72.0337789 C286.558373,71.2877789 286.434373,70.7247789 286.369373,70.3477789 C286.355373,70.2647789 286.399373,70.2157789 286.501373,70.1977789 C286.588373,70.1827789 286.724373,70.1727789 286.910373,70.1647789 C287.096373,70.1587789 287.235373,70.1467789 287.327373,70.1317789 C287.419373,70.1157789 287.554373,70.0807789 287.731373,70.0247789 C287.909373,69.9707789 288.044373,69.9347789 288.136373,69.9187789 C288.218373,69.9047789 288.268373,69.9437789 288.283373,70.0357789 M287.998373,68.0577789 C288.099373,68.6537789 287.819373,69.0087789 287.155373,69.1217789 C286.481373,69.2367789 286.094373,68.9957789 285.992373,68.4007789 C285.947373,68.1337789 286.013373,67.8947789 286.192373,67.6857789 C286.357373,67.4877789 286.576373,67.3657789 286.848373,67.3187789 C287.118373,67.2727789 287.367373,67.3177789 287.592373,67.4537789 C287.817373,67.5907789 287.952373,67.7917789 287.998373,68.0577789" id="Fill-41" fill="#FFFFFE"></path>
            <path d="M291.360473,66.0557789 L291.369473,66.1517789 C291.569473,67.9717789 291.780473,69.5297789 292.001473,70.8227789 C292.099473,71.3997789 292.256473,72.2617789 292.472473,73.4087789 C292.687473,74.5557789 292.843473,75.4157789 292.941473,75.9867789 C292.960473,76.0977789 292.930473,76.1597789 292.853473,76.1737789 L291.465473,76.4097789 C291.378473,76.4247789 291.325473,76.3767789 291.306473,76.2647789 C291.208473,75.6937789 291.067473,74.8317789 290.880473,73.6807789 C290.693473,72.5277789 290.551473,71.6637789 290.453473,71.0867789 C290.363473,70.5627789 290.204473,69.7827789 289.974473,68.7417789 C289.744473,67.7017789 289.586473,66.9227789 289.497473,66.4037789 C289.481473,66.3057789 289.523473,66.2497789 289.625473,66.2317789 C289.712473,66.2177789 289.844473,66.2027789 290.021473,66.1877789 C290.198473,66.1727789 290.330473,66.1577789 290.417473,66.1417789 C290.509473,66.1267789 290.643473,66.0967789 290.820473,66.0517789 C290.997473,66.0067789 291.129473,65.9757789 291.216473,65.9607789 C291.303473,65.9457789 291.352473,65.9777789 291.360473,66.0557789" id="Fill-43" fill="#FFFFFE"></path>
            <path d="M298.573873,70.7266789 C298.505873,70.3246789 298.286873,69.9946789 297.915873,69.7386789 C297.545873,69.4826789 297.161873,69.3886789 296.764873,69.4566789 C296.318873,69.5326789 295.953873,69.7796789 295.668873,70.1976789 C295.382873,70.6146789 295.278873,71.0466789 295.354873,71.4926789 C295.372873,71.5936789 295.467873,71.6296789 295.641873,71.5996789 C296.359873,71.4766789 297.203873,71.2586789 298.177873,70.9436789 C298.451873,70.8566789 298.583873,70.7846789 298.573873,70.7266789 M300.379873,70.8736789 C300.440873,71.2336789 300.325873,71.4986789 300.036873,71.6746789 C299.841873,71.7856789 298.366873,72.1846789 295.611873,72.8686789 C295.747873,73.2846789 296.044873,73.6076789 296.502873,73.8386789 C296.939873,74.0586789 297.379873,74.1316789 297.825873,74.0556789 C298.590873,73.9246789 299.251873,73.5566789 299.806873,72.9546789 C299.873873,72.8776789 299.939873,72.8026789 300.007873,72.7246789 C300.045873,72.7176789 300.072873,72.7196789 300.085873,72.7266789 C300.098873,72.7346789 300.219873,72.8886789 300.444873,73.1856789 C300.669873,73.4836789 300.784873,73.6436789 300.788873,73.6686789 C300.793873,73.6986789 300.763873,73.7616789 300.700873,73.8556789 C300.117873,74.7326789 299.268873,75.2676789 298.154873,75.4576789 C297.030873,75.6486789 296.076873,75.4656789 295.293873,74.9086789 C294.511873,74.3516789 294.024873,73.5136789 293.833873,72.3946789 C293.663873,71.3966789 293.834873,70.4726789 294.347873,69.6226789 C294.889873,68.7366789 295.650873,68.2116789 296.628873,68.0446789 C297.539873,67.8896789 298.356873,68.0936789 299.081873,68.6576789 C299.788873,69.2056789 300.220873,69.9446789 300.379873,70.8736789" id="Fill-45" fill="#FFFFFE"></path>
            <path d="M308.812173,73.3033789 C308.830173,73.4093789 308.790173,73.4703789 308.693173,73.4873789 C308.534173,73.5143789 308.294173,73.5533789 307.977173,73.6023789 C307.658173,73.6513789 307.419173,73.6893789 307.259173,73.7163789 C307.172173,73.7313789 307.117173,73.6683789 307.092173,73.5293789 C307.052173,73.2913789 306.998173,72.9293789 306.930173,72.4423789 C306.861173,71.9553789 306.807173,71.5913789 306.766173,71.3483789 C306.733173,71.1553789 306.681173,70.8653789 306.610173,70.4823789 C306.540173,70.0963789 306.488173,69.8083789 306.455173,69.6143789 C306.360173,69.0623789 306.214173,68.6853789 306.016173,68.4863789 C305.775173,68.2473789 305.394173,68.1733789 304.871173,68.2623789 C304.628173,68.3033789 304.315173,68.4963789 303.930173,68.8413789 C303.524173,69.2043789 303.339173,69.4983789 303.377173,69.7203789 L304.121173,74.0803789 C304.141173,74.2013789 304.105173,74.2693789 304.013173,74.2853789 C303.858173,74.3113789 303.625173,74.3493789 303.315173,74.3973789 C303.004173,74.4443789 302.770173,74.4823789 302.616173,74.5083789 C302.514173,74.5263789 302.454173,74.4793789 302.435173,74.3673789 C302.369173,73.9863789 302.278173,73.4103789 302.159173,72.6413789 C302.041173,71.8753789 301.949173,71.2973789 301.882173,70.9103789 C301.707173,69.8783789 301.435173,68.9443789 301.068173,68.1093789 C301.046173,68.0693789 301.034173,68.0383789 301.030173,68.0193789 C301.022173,67.9703789 301.048173,67.9313789 301.107173,67.9013789 C301.141173,67.8903789 301.410173,67.7993789 301.916173,67.6253789 C302.423173,67.4513789 302.688173,67.3623789 302.713173,67.3583789 C302.742173,67.3533789 302.767173,67.3883789 302.791173,67.4643789 C302.866173,67.7613789 302.973173,68.0543789 303.113173,68.3453789 C303.331173,68.1033789 303.620173,67.7993789 303.982173,67.4333789 C304.438173,67.0363789 304.903173,66.7983789 305.377173,66.7173789 C306.289173,66.5623789 306.956173,66.7193789 307.380173,67.1913789 C307.694173,67.5353789 307.924173,68.1423789 308.072173,69.0093789 C308.098173,69.1593789 308.133173,69.3903789 308.178173,69.7013789 C308.225173,70.0123789 308.260173,70.2463789 308.287173,70.4023789 C308.342173,70.7263789 308.429173,71.2093789 308.549173,71.8513789 C308.669173,72.4953789 308.756173,72.9783789 308.812173,73.3033789" id="Fill-47" fill="#FFFFFE"></path>
            <path d="M312.442573,71.9586789 C312.492573,72.2496789 312.446573,72.5106789 312.307573,72.7446789 C312.167573,72.9776789 311.955573,73.1186789 311.669573,73.1676789 C311.382573,73.2166789 311.134573,73.1476789 310.923573,72.9646789 C310.725573,72.7986789 310.602573,72.5716789 310.552573,72.2806789 C310.504573,71.9946789 310.547573,71.7406789 310.684573,71.5176789 C310.820573,71.2956789 311.031573,71.1596789 311.317573,71.1106789 C311.599573,71.0626789 311.844573,71.1206789 312.054573,71.2836789 C312.264573,71.4486789 312.394573,71.6726789 312.442573,71.9586789 M311.134573,64.4636789 C311.343573,65.6896789 311.444573,66.8266789 311.439573,67.8746789 C311.432573,68.2686789 311.436573,68.8596789 311.449573,69.6456789 C311.463573,69.8376789 311.350573,69.9536789 311.112573,69.9946789 C310.977573,70.0176789 310.880573,70.0236789 310.824573,70.0136789 C310.742573,70.0016789 310.679573,69.9376789 310.634573,69.8206789 C310.091573,68.4186789 309.785573,67.5156789 309.716573,67.1126789 L309.048573,63.1956789 C309.016573,63.0076789 309.029573,62.9076789 309.087573,62.8976789 C309.174573,62.8836789 309.310573,62.8736789 309.493573,62.8666789 C309.677573,62.8606789 309.815573,62.8486789 309.906573,62.8326789 C309.998573,62.8166789 310.133573,62.7826789 310.311573,62.7276789 C310.488573,62.6726789 310.621573,62.6366789 310.708573,62.6216789 C310.771573,62.6106789 310.817573,62.6966789 310.848573,62.8776789 C310.880573,63.0606789 310.927573,63.3266789 310.992573,63.6766789 C311.057573,64.0266789 311.104573,64.2886789 311.134573,64.4636789" id="Fill-49" fill="#FFFFFE"></path>
            <path d="M229.607573,40.7540789 C227.218573,35.2810789 227.338573,29.7120789 229.394573,24.2300789 C230.523573,21.2180789 232.089573,18.3630789 233.559573,15.4890789 C233.976573,14.6740789 233.887573,14.3290789 233.128573,13.8940789 C231.599573,13.0190789 230.122573,12.0530789 228.343573,10.9520789 C235.146573,7.92307889 241.782573,4.96907889 248.501573,1.97807889 C244.127573,0.0700788946 239.425573,-0.459921105 234.392573,0.398078895 C226.940573,1.66907889 221.174573,5.58107889 217.091573,12.1330789 C213.128573,18.4560789 211.790573,25.3930789 213.078573,32.9470789 C214.379573,40.5770789 217.917573,46.6960789 223.693573,51.3050789 C229.682573,56.0880789 236.440573,57.8370789 243.969573,56.5530789 C244.167573,56.5190789 244.358573,56.4760789 244.554573,56.4390789 C242.084573,54.5140789 239.535573,52.6810789 237.185573,50.6210789 C234.024573,47.8490789 231.315573,44.6660789 229.607573,40.7540789" id="Fill-51" fill="#4783B7"></path>
            <path d="M265.290673,24.0425789 C263.998673,16.4635789 260.448673,10.3585789 254.643673,5.72957889 C253.579673,4.87557889 252.492673,4.12357889 251.383673,3.46157889 C251.779673,10.9455789 252.170673,18.3355789 252.574673,25.9575789 C250.777673,24.8445789 249.232673,23.9485789 247.758673,22.9495789 C247.008673,22.4415789 246.640673,22.5245789 246.174673,23.3075789 C244.086673,26.8205789 241.985673,30.3135789 240.546673,34.1715789 C237.952673,41.1255789 238.908673,47.5755789 243.085673,53.6225789 C243.712673,54.5295789 244.379673,55.4085789 245.027673,56.3015789 C245.013673,56.3195789 244.998673,56.3365789 244.982673,56.3555789 C251.994673,54.9055789 257.453673,51.0715789 261.353673,44.8425789 C265.269673,38.5555789 266.582673,31.6215789 265.290673,24.0425789" id="Fill-53" fill="#4783B7"></path>
            <path d="M244.772573,56.6065789 C244.842573,56.5225789 244.912573,56.4385789 244.982573,56.3555789 C244.841573,56.3845789 244.697573,56.4115789 244.554573,56.4385789 C244.626573,56.4945789 244.700573,56.5495789 244.772573,56.6065789" id="Fill-55" fill="#4783B7"></path>
        </g>
    </g>
</svg>