<svg height="105" width="328" xmlns="http://www.w3.org/2000/svg"><g fill="none" fill-rule="evenodd"><path d="M35.83 65.38c-1.612 2.56-4.205 4.144-7.777 4.753-6.38 1.088-10.296 1.612-11.747 1.57-.583-.03-.894-.163-.934-.392a181.215 181.215 0 0 0-.917-4.807c-.43-2.133-.736-3.735-.918-4.807-1.445-8.472-2.105-12.877-1.978-13.213.066-.222 1.806-.728 5.216-1.52 2.976-.718 5.052-1.177 6.225-1.377 3.777-.644 6.942.051 9.495 2.084 2.46 1.944 4.014 4.83 4.667 8.658.614 3.598.17 6.615-1.332 9.051m10.88-11.27c-.962-5.64-3.536-10.033-7.722-13.18-4.277-3.21-9.236-4.334-14.875-3.372-1.2.205-2.99.563-5.37 1.074-2.383.511-4.173.87-5.372 1.073-1.404.24-3.493.583-6.266 1.03a734.92 734.92 0 0 0-6.227 1.022c-.689.118-.972.455-.85 1.012l.135.567c2.145 9.036 3.896 17.535 5.254 25.497.48 2.807 1.076 7.04 1.79 12.694.716 5.656 1.311 9.875 1.785 12.656.135.791.521 1.132 1.16 1.023.433-.074 1.09-.225 1.97-.454s1.55-.382 2.01-.46c.535-.092 1.355-.173 2.46-.243s1.924-.15 2.46-.242c.484-.083.69-.34.616-.775-.23-1.353-.66-3.367-1.287-6.044-.627-2.676-1.056-4.69-1.287-6.044-.178-1.046.141-1.639.957-1.778 1.48-.253 3.704-.573 6.671-.96 2.967-.388 5.178-.706 6.633-.954 5.92-1.01 10.236-3.65 12.95-7.92 2.625-4.152 3.428-9.225 2.405-15.223" fill="#4783b7"/><path d="M83.87 60.418c-.127-.74-1.84-3.862-5.143-9.365-3.195-5.338-5.405-8.82-6.628-10.45-2.984 14.374-4.422 21.881-4.313 22.518.147.868 1.204 1.213 3.17 1.035.106.01 1.358-.192 3.757-.6l3.944-.674c3.65-.622 5.386-1.443 5.212-2.464m21.442 18.088c.052.306-.229.511-.84.616-.486.083-1.2.165-2.145.247-.945.082-1.66.165-2.144.248-.485.082-1.206.244-2.163.487-.957.241-1.677.404-2.162.486-.715.122-1.956-1.655-3.726-5.332-1.769-3.677-3.232-5.443-4.389-5.298-.954.11-3.42.504-7.4 1.183l-6.049 1.032c-4.21.718-6.606 1.153-7.184 1.304-.906.232-1.546 2.365-1.923 6.394-.376 4.03-.845 6.092-1.406 6.188l-8.613 1.47c-.51.086-.796-.049-.857-.406-.044-.255.037-.86.242-1.814l5.005-27.247c.438-2.202 1.821-8.569 4.147-19.103.436-1.754.986-4.383 1.65-7.884.141-1.022.39-1.563.747-1.624.485-.083 1.21-.14 2.177-.175.965-.032 1.69-.09 2.175-.174.46-.078 1.143-.267 2.051-.566.907-.299 1.578-.486 2.012-.559.23-.04.628.378 1.198 1.252.857 1.325 5.193 8.504 13.01 21.535 11.027 18.315 16.556 27.561 16.587 27.74" fill="#db3061"/><path d="M148.855 17.152c.5 2.935 1.153 7.38 1.958 13.335.806 5.956 1.46 10.414 1.966 13.373.475 2.782 1.21 6.944 2.208 12.485.998 5.542 1.734 9.704 2.208 12.486.144.842-.104 1.317-.741 1.426-.383.065-.964.124-1.743.179-.778.053-1.36.113-1.741.179-.41.069-1.028.214-1.857.434s-1.447.365-1.856.435c-.46.078-1.08-.249-1.861-.982-6.778-6.487-17.025-16.136-30.74-28.951-2.118-1.949-3.34-3.028-3.663-3.235-.255.044-.294.588-.115 1.634.67 3.931 1.74 9.821 3.21 17.672 1.47 7.851 2.54 13.741 3.21 17.671.145.842-.04 1.307-.55 1.394-.433.074-1.103.149-2.01.224-.906.076-1.575.151-2.01.225a27.33 27.33 0 0 0-2.027.464c-.893.231-1.57.386-2.03.464-.637.109-1-.091-1.086-.602-.48-2.807-1.066-7.06-1.762-12.758s-1.286-9.964-1.77-12.796c-.526-3.088-1.59-8.631-3.19-16.631-.408-2.083-1.071-5.201-1.988-9.352l-.124-.491c-.09-.378.18-.635.814-.769 1.655-.307 2.948-.581 3.879-.819.353-.086 1.012-.303 1.977-.652.815-.296 1.466-.486 1.95-.569.23-.039.689.264 1.377.908 7.244 7.063 18.273 17.525 33.085 31.386a29.449 29.449 0 0 0 1.786 1.468c-.005-1.102-.332-3.568-.985-7.395-.566-3.318-1.536-8.273-2.91-14.867-1.374-6.593-2.341-11.536-2.903-14.828-.143-.842.039-1.307.55-1.394.46-.078 1.16-.159 2.106-.241.944-.083 1.647-.163 2.106-.241.484-.082 1.205-.245 2.162-.487s1.677-.404 2.163-.487c.535-.091.85.144.947.705m47.894 32.997c-1.357 2.358-3.042 4.104-5.055 5.234-1.632.91-3.914 1.614-6.849 2.114-4.134.705-5.995 1.036-5.582.991-3.089.37-4.715.07-4.88-.9-.332-1.939-.872-4.84-1.623-8.706-.75-3.863-1.29-6.764-1.622-8.704-.335-1.965-.793-4.913-1.37-8.846-.58-3.933-1.037-6.88-1.372-8.847-.158-.928 1.202-1.72 4.064-2.376.034-.009.077-.02.134-.033l-.134.033c-.468.125 1.404-.17 5.621-.89 5.46-.93 10.131.123 14.012 3.165 3.731 2.935 6.066 7.16 7.006 12.671.962 5.64.178 10.672-2.35 15.094m11.728-16.694a30.434 30.434 0 0 0-4.435-11.454c-2.402-3.767-5.364-6.583-8.886-8.45-4.909-2.604-11.79-3.15-20.646-1.64-.918.156-2.269.4-4.05.73-1.783.33-3.108.57-3.975.716-.944.162-2.356.39-4.236.684s-3.293.522-4.237.683c-.663.113-.95.437-.858.973.505 2.961 1.366 7.396 2.585 13.307 1.218 5.912 2.08 10.348 2.584 13.308.48 2.807 1.088 7.036 1.83 12.687s1.347 9.868 1.821 12.65c.11.638.482.902 1.12.793 1.2-.205 2.997-.564 5.391-1.077 2.394-.512 4.191-.872 5.39-1.077 1.327-.226 3.332-.515 6.017-.868 2.684-.353 4.69-.643 6.017-.869 6.941-1.184 12.147-4.999 15.616-11.447 3.191-5.928 4.175-12.477 2.952-19.649" fill="#4783b7"/><path d="M66.834 22.885a4.357 4.357 0 1 1-8.32 2.59 4.357 4.357 0 0 1 8.32-2.59m13.431-2.29a4.358 4.358 0 1 1-5.455-2.866 4.357 4.357 0 0 1 5.455 2.866m233.376 60.032l-139.363 23.767-1.54-9.029c-1.594-9.345 4.69-18.213 14.035-19.806l139.364-23.767 1.54 9.028c1.593 9.346-4.69 18.213-14.036 19.807" fill="#db3061"/><path d="M196.078 91.175c.013.077.013.192 0 .344l-.023.347c.014.178.024.438.028.782-.01.09-.065.145-.167.163a2.23 2.23 0 0 1-.281.016c-.611.016-1.541.13-2.791.343-.353.06-.885.161-1.594.301a64.14 64.14 0 0 1-1.593.302c-.161.027-.252-.03-.276-.169-.093-.542-.201-1.363-.326-2.461s-.234-1.919-.327-2.461a96.032 96.032 0 0 0-.613-3.073 58.769 58.769 0 0 0-.377-1.725l-.024-.099c-.024-.111.03-.178.16-.2.339-.058.85-.135 1.53-.231a64.784 64.784 0 0 0 1.532-.232c.325-.055.809-.148 1.452-.277a60.496 60.496 0 0 1 1.452-.278c.228-.038.363.011.407.148.21.623.329 1.011.355 1.166.019.112-.024.176-.13.195-.412.07-1.04.153-1.883.249-.844.097-1.477.181-1.898.253-.398.067-.64.164-.725.288s-.093.397-.021.819l.185 1.083c.05.296.087.466.109.511.07.144.208.197.417.162.058-.01.14-.027.245-.05l.247-.042c.95-.162 1.8-.324 2.55-.487.294-.061.639-.145 1.034-.251.1-.027.158.007.175.105.026.155.048.395.067.721.018.326.04.569.068.729.015.088-.05.143-.195.168-.06.01-.278.029-.656.06-.277.017-.89.106-1.84.268-.798.137-1.303.232-1.513.288-.191.048-.285.168-.282.362 0-.034.034.151.103.558l.183 1.076c.087.504.217.806.394.905.138.081.449.08.934-.003l.798-.143c.339-.057 1.28-.279 2.826-.66l.108-.027c.095-.026.154.026.176.157m4.726-6.325c.091.532.137 1.024.14 1.472.003.113-.036.177-.119.192a4.865 4.865 0 0 1-.466.046c-.21.013-.368.029-.474.047-.61.104-.972.343-1.083.716-.066.226-.043.668.07 1.326l.136.8c.046.272.127.68.243 1.229.116.549.198.96.244 1.23.022.13-.023.206-.134.225-.15.025-.378.062-.684.11-.307.046-.535.083-.685.108-.11.019-.177-.032-.198-.153-.067-.391-.16-.983-.284-1.777-.123-.791-.218-1.384-.285-1.782-.204-1.197-.48-2.14-.827-2.83a.376.376 0 0 1-.029-.082c-.01-.06.014-.106.073-.141.176-.05.424-.122.741-.215.507-.187.741-.276.702-.27.077-.013.153.12.226.403.073.28.14.416.204.406a.07.07 0 0 0 .033-.021l.532-.48a2.557 2.557 0 0 1 1.33-.616c.378-.063.576-.045.594.057m4.496-3.332c.01.058-.028.1-.114.124-.233.064-.464.126-.693.186-.27.085-.464.218-.583.398-.193.298-.2.97-.023 2.016.16-.027.413-.066.76-.115.344-.049.604-.088.778-.118.117-.02.183.013.198.101.023.136.062.337.117.604.056.267.095.467.117.597.016.093-.025.146-.122.163-.169.028-.427.065-.774.106-.348.042-.603.076-.767.105l.37 2.173c.058.34.157.85.3 1.534.141.685.24 1.195.298 1.534.022.131-.015.204-.112.221l-1.33.227c-.126.021-.202-.042-.228-.192l-.852-5c-.022-.13-.18-.169-.475-.114-.319.06-.49.077-.515.05-.017-.012-.04-.1-.068-.265-.018-.106-.05-.264-.095-.473a10.268 10.268 0 0 1-.096-.474c-.017-.1.28-.22.888-.36a17.452 17.452 0 0 1-.15-.753c-.147-.857-.1-1.51.136-1.96.211-.405.56-.753 1.05-1.045.437-.265.908-.44 1.412-.526.048-.008.087.012.115.062.006.01.084.207.232.592.148.386.223.586.226.602m7.193 4.719c-.102-.596-.366-1.077-.792-1.444-.452-.396-.968-.544-1.549-.445s-1.028.409-1.337.931a2.324 2.324 0 0 0-.297 1.636c.1.586.373 1.063.82 1.43.464.385.987.527 1.57.428.565-.097 1.001-.407 1.305-.933a2.327 2.327 0 0 0 .28-1.603m1.335-3.354a.924.924 0 0 1 0 .134c0 1.142.07 2.116.207 2.919.008.049.253 1.126.737 3.232l.025.101c.03.139-.023.22-.157.243a5.468 5.468 0 0 0-.594.151 5.987 5.987 0 0 1-.593.149c-.09.015-.19-.141-.296-.472-.107-.331-.182-.494-.225-.487-.029.006-.144.122-.345.352-.246.28-.482.503-.708.666-.35.259-.716.422-1.099.487-.939.16-1.796-.08-2.569-.722a3.803 3.803 0 0 1-1.343-2.351c-.183-1.075-.027-2.016.47-2.824.518-.841 1.304-1.352 2.355-1.531a2.794 2.794 0 0 1 2.071.439c.1.083.252.202.458.357.017.011.032.016.047.014.03-.005.044-.166.045-.48.002-.314.044-.477.126-.491.131-.022.382-.029.752-.017.412.019.625.064.636.131m8.978 4.975c.031.18-.005.277-.106.294-.15.026-.378.063-.685.11a25.85 25.85 0 0 0-.684.11c-.12.02-.196-.049-.223-.209-.04-.234-.09-.585-.154-1.058a37.398 37.398 0 0 0-.155-1.066 32.702 32.702 0 0 0-.199-1.01 30.83 30.83 0 0 1-.2-1.016c-.148-.872-.634-1.238-1.457-1.097-.267.046-.594.238-.979.578-.41.364-.597.666-.557.902l.736 4.316c.024.141-.014.22-.116.237-.15.026-.376.062-.677.11-.3.044-.527.08-.677.106-.112.02-.179-.037-.2-.168l-.599-3.51a150.25 150.25 0 0 0-.716-3.63 60.087 60.087 0 0 0-.56-2.537 1.361 1.361 0 0 1-.035-.114c-.014-.083.006-.139.061-.168.078-.044.35-.104.814-.183.101-.018.251-.062.448-.134.197-.07.342-.113.434-.13.063-.01.102.032.118.122.077.456.177 1.143.296 2.063.12.918.218 1.606.296 2.061.02.113.047.167.088.165.211-.25.488-.556.83-.919a2.836 2.836 0 0 1 1.428-.699c.911-.155 1.585.01 2.021.493.315.355.546.962.693 1.826.026.15.062.382.108.695.046.314.082.546.107.696.053.311.137.772.251 1.387.115.613.198 1.072.25 1.377m4.804-7.58c.091.532.137 1.024.138 1.472.005.114-.034.178-.116.192a4.613 4.613 0 0 1-.467.046c-.21.013-.368.029-.474.047-.61.104-.972.344-1.082.716-.066.226-.043.668.07 1.326l.135.801c.046.271.128.68.243 1.229.116.548.198.959.244 1.229.022.131-.023.206-.134.225-.15.026-.378.063-.684.11-.307.046-.535.083-.685.108-.11.02-.177-.032-.197-.153-.067-.391-.162-.983-.285-1.776-.123-.791-.217-1.385-.285-1.783-.204-1.197-.48-2.139-.827-2.829a.525.525 0 0 1-.029-.083c-.01-.06.015-.106.073-.141.176-.049.423-.121.741-.215.507-.187.741-.276.702-.269.078-.014.153.121.226.402.073.282.141.417.204.406a.074.074 0 0 0 .033-.021l.532-.478a2.75 2.75 0 0 1 .62-.406c.18-.091.416-.16.711-.211.378-.064.576-.046.593.056m7.94-1.115c.061.354.137.891.23 1.61.093.72.17 1.26.231 1.617.06.354.162.881.303 1.582.142.702.243 1.23.304 1.583.016.096-.019.168-.106.212-.038.017-.528.104-1.473.266-.057.01-.124-.166-.198-.526-.074-.362-.133-.538-.176-.53-.025.003-.057.03-.098.083-.689.84-1.429 1.327-2.219 1.462-1.07.183-1.844-.084-2.32-.8-.294-.444-.549-1.288-.761-2.534-.192-1.123-.264-2.09-.218-2.9.011-.198.075-.305.191-.325.141-.024.352-.057.634-.1s.492-.077.633-.1c.097-.017.155.028.173.133.032.19.055.511.067.961.012.482.032.82.06 1.015.035.293.083.615.142.962.145.85.303 1.407.473 1.677.297.488.804.671 1.522.548.305-.052.641-.264 1.006-.635.387-.39.563-.73.528-1.024-.038-.368-.244-1.649-.618-3.844-.04-.237.038-.372.237-.406l1.199-.205c.141-.024.225.048.254.218m9.357 5.039c.018.106-.021.167-.118.184-.16.027-.4.066-.717.115-.32.048-.558.087-.717.114-.087.015-.143-.048-.167-.187a48.29 48.29 0 0 1-.163-1.087 42.175 42.175 0 0 0-.163-1.094l-.156-.867a70.353 70.353 0 0 1-.156-.867c-.094-.552-.241-.93-.44-1.128-.24-.24-.621-.314-1.143-.225-.244.042-.557.235-.941.58-.407.363-.592.656-.554.878l.744 4.36c.02.12-.016.19-.107.206-.155.026-.39.064-.7.112a43.57 43.57 0 0 0-.698.11c-.102.019-.162-.03-.181-.14a127.14 127.14 0 0 1-.276-1.726c-.118-.766-.21-1.345-.276-1.732a11.919 11.919 0 0 0-.852-2.89c-.01-.05.017-.088.076-.118.034-.011.304-.102.81-.276s.77-.263.796-.268c.029-.005.055.03.078.107.075.296.182.589.322.88.218-.241.507-.545.869-.911.456-.397.92-.635 1.396-.716.91-.155 1.578.002 2.002.473.314.345.544.952.693 1.819.025.15.06.38.106.692.046.31.08.545.108.7.055.325.143.808.263 1.45.119.644.206 1.127.262 1.452m5.79-4.728c-.092-.543-.318-.978-.678-1.305a1.573 1.573 0 0 0-1.384-.399 1.56 1.56 0 0 0-1.166.842c-.231.427-.3.91-.21 1.448.09.53.319.958.685 1.29.396.361.853.498 1.37.41.514-.089.9-.369 1.158-.842.24-.434.316-.916.226-1.444m1.233-3.29c.099.58.244 1.455.433 2.621.188 1.167.332 2.041.432 2.622.196 1.153.094 2.046-.306 2.677-.42.671-1.2 1.103-2.337 1.297-1.1.187-2.025.13-2.774-.17-.118-.05-.181-.099-.19-.149.01.055.02-.317.035-1.112 0-.085.028-.132.08-.14a.199.199 0 0 1 .102.02c.797.291 1.562.376 2.293.251.48-.08.859-.255 1.138-.522.322-.304.444-.687.365-1.147a16.794 16.794 0 0 0-.145-.679c-.426.746-1.054 1.19-1.882 1.33-.897.154-1.688-.043-2.374-.588-.658-.526-1.064-1.242-1.22-2.148-.156-.92-.023-1.749.4-2.484.449-.785 1.127-1.255 2.033-1.41.799-.136 1.487.065 2.062.6.094.088.159.13.193.124.038-.007.05-.054.035-.14a4.203 4.203 0 0 0-.065-.299 4.497 4.497 0 0 1-.068-.307c-.05-.29-.045-.44.013-.45.049-.009.318-.01.808 0s.758.018.805.03c.072.013.117.07.134.172m6.55 1.382c-.07-.402-.289-.732-.66-.988-.37-.256-.753-.35-1.15-.283-.446.077-.812.324-1.097.74-.285.419-.39.85-.314 1.297.018.1.113.136.287.107.718-.123 1.563-.341 2.536-.656.274-.087.407-.16.397-.217m1.805.147c.061.359-.054.625-.343.8-.194.112-1.67.51-4.425 1.195.136.416.433.739.891.97.437.22.878.292 1.323.216.766-.13 1.426-.498 1.981-1.1l.201-.23c.038-.007.065-.005.078.002.014.008.134.162.36.458.224.299.34.459.343.483.006.03-.024.093-.088.188-.583.877-1.432 1.412-2.546 1.6-1.124.193-2.077.01-2.86-.547s-1.27-1.395-1.46-2.515c-.17-.998 0-1.921.513-2.771.542-.886 1.303-1.411 2.282-1.578.91-.155 1.727.049 2.452.613.707.548 1.14 1.286 1.298 2.216m8.432 2.429c.018.106-.02.167-.118.184-.16.027-.4.066-.717.115-.319.049-.558.087-.717.115-.088.014-.143-.048-.167-.188-.04-.237-.094-.6-.163-1.087a41.876 41.876 0 0 0-.164-1.094 90.575 90.575 0 0 0-.155-.866 69.752 69.752 0 0 1-.156-.868c-.094-.552-.24-.93-.439-1.128-.24-.24-.622-.313-1.144-.224-.244.04-.557.234-.94.58-.408.362-.593.656-.555.878l.744 4.36c.021.12-.016.189-.107.205a42.9 42.9 0 0 1-.699.112c-.31.047-.544.085-.699.112-.102.017-.162-.03-.18-.142-.066-.381-.158-.957-.277-1.725-.118-.767-.21-1.345-.276-1.732a11.905 11.905 0 0 0-.852-2.891c-.009-.05.017-.088.076-.118.034-.011.304-.102.81-.276s.771-.263.796-.267c.03-.005.055.03.078.106.075.297.182.59.322.88.218-.241.507-.545.87-.91.455-.398.92-.635 1.395-.716.911-.156 1.578.002 2.002.473.314.344.544.95.692 1.819.026.15.061.38.107.692.046.31.081.545.108.7.055.324.143.808.263 1.449.12.644.206 1.127.262 1.452m9.69-2.88c.019.107.033.254.046.441.014.232.024.382.03.451.01.088.013.142.007.164-.014.037-.054.08-.121.124-.365.257-.974.46-1.826.604-1.134.194-1.79-.223-1.964-1.25-.07-.412-.166-1.033-.287-1.862s-.217-1.449-.287-1.86c-.035-.2-.152-.29-.353-.27-.18.03-.357.058-.532.083-.106-.007-.19-.197-.254-.57a3.581 3.581 0 0 1-.047-.449c-.005-.118.06-.202.197-.25.12-.02.24-.044.354-.069.222-.047.316-.165.284-.353-.033-.195-.09-.49-.17-.884-.08-.396-.136-.693-.17-.892-.06-.353-.022-.54.114-.564.042-.008.51-.01 1.404-.008.114-.005.179.04.194.131.036.214.076.535.117.968.04.432.079.754.116.967.024.14.1.2.232.177l1.744-.297c.082-.014.129.007.139.066.01.058.017.152.022.283.005.132.012.23.023.292.012.073.034.184.064.334.03.15.052.26.065.332.015.093-.045.15-.18.173-.194.033-.49.07-.886.111a14.7 14.7 0 0 0-.887.108c-.04.007-.043.151-.016.43.034.348.105.833.21 1.453l.185 1.083c.07.416.16.7.265.851.159.232.42.317.784.255.15-.025.365-.095.644-.21.28-.115.49-.185.63-.209.059-.01.095.03.11.116m5.324-4.003c-.069-.402-.288-.732-.659-.988-.369-.256-.753-.35-1.15-.283-.446.077-.81.324-1.097.741-.285.418-.39.85-.314 1.296.018.1.114.136.288.107.717-.123 1.562-.34 2.536-.656.273-.087.406-.159.396-.217m1.805.147c.061.36-.053.625-.342.8-.195.112-1.67.511-4.425 1.195.135.416.432.74.89.97.437.22.878.292 1.323.216.766-.13 1.427-.498 1.981-1.1l.201-.23c.04-.007.065-.006.08.002.012.008.132.161.357.458.225.3.34.46.344.483.006.031-.024.093-.088.188-.583.877-1.432 1.411-2.546 1.601-1.123.192-2.077.01-2.86-.548s-1.27-1.395-1.46-2.515c-.17-.998 0-1.92.513-2.77.542-.887 1.303-1.413 2.282-1.58.91-.155 1.728.05 2.452.614.707.548 1.14 1.286 1.298 2.216m2.747-3.37c.064.374.136.94.22 1.702.081.762.155 1.33.22 1.709.06.355.157.882.292 1.584.135.703.231 1.228.291 1.577.017.1-.017.16-.105.175l-1.417.242c-.102.017-.168-.073-.203-.273a68.663 68.663 0 0 1-.232-1.512 62.564 62.564 0 0 0-.233-1.52 25.794 25.794 0 0 0-.373-1.685 25.952 25.952 0 0 1-.374-1.686c-.014-.083.03-.132.132-.15a3.64 3.64 0 0 1 .41-.033c.185-.006.324-.018.416-.033.092-.016.227-.051.404-.107.178-.054.313-.09.405-.106.082-.014.132.025.147.117m-.285-1.978c.101.596-.179.95-.843 1.064-.674.115-1.06-.126-1.163-.721a.838.838 0 0 1 .2-.715c.165-.198.384-.32.656-.367.27-.046.52-.001.744.135.225.137.36.338.406.604m3.362-2.002l.01.096c.2 1.82.41 3.378.631 4.67.098.578.255 1.44.471 2.587.215 1.147.371 2.007.47 2.578.018.11-.012.173-.089.187l-1.388.236c-.087.015-.14-.033-.159-.145-.098-.571-.239-1.433-.426-2.584a390.353 390.353 0 0 0-.427-2.594 55.08 55.08 0 0 0-.479-2.345 54.22 54.22 0 0 1-.477-2.338c-.016-.098.026-.154.128-.172.087-.014.22-.03.396-.044s.31-.03.396-.046c.092-.015.226-.045.403-.09s.31-.076.396-.091.136.017.144.095m7.214 4.67c-.068-.401-.287-.731-.658-.987-.37-.256-.754-.35-1.151-.282-.446.076-.811.323-1.096.74-.286.418-.39.85-.314 1.296.018.1.113.137.287.107.718-.123 1.562-.341 2.536-.656.274-.087.406-.16.396-.217m1.806.147c.06.36-.054.625-.343.8-.195.112-1.67.51-4.425 1.195.136.416.433.739.89.97a2.1 2.1 0 0 0 1.324.217c.765-.131 1.426-.5 1.98-1.101l.202-.23c.038-.007.065-.005.078.002.013.008.134.162.359.459.225.298.34.458.344.483.005.03-.025.093-.088.187-.583.877-1.432 1.412-2.546 1.602-1.124.19-2.078.008-2.861-.55-.782-.556-1.27-1.394-1.46-2.513-.17-.998 0-1.922.514-2.772.542-.886 1.303-1.411 2.28-1.578.912-.155 1.729.049 2.454.613.707.548 1.139 1.287 1.298 2.216m8.432 2.43c.018.105-.022.166-.119.183-.159.027-.399.066-.716.115-.319.05-.558.087-.718.114-.087.015-.142-.048-.167-.187-.04-.238-.094-.6-.162-1.087a46.756 46.756 0 0 0-.164-1.094 67.601 67.601 0 0 0-.156-.866c-.07-.386-.122-.674-.155-.868-.095-.552-.24-.929-.439-1.128-.24-.239-.622-.313-1.145-.224-.243.041-.556.234-.94.58-.407.362-.592.656-.554.878l.744 4.36c.02.121-.016.19-.108.205-.155.026-.388.064-.698.112-.31.047-.545.085-.699.111-.102.018-.162-.029-.18-.14a110.82 110.82 0 0 1-.277-1.727c-.118-.766-.21-1.344-.277-1.73a11.88 11.88 0 0 0-.814-2.802.364.364 0 0 1-.038-.09c-.008-.049.018-.088.077-.118.034-.01.303-.102.81-.276.506-.174.771-.263.796-.267.03-.005.054.03.078.106.075.297.182.59.322.881.218-.242.507-.546.87-.912.455-.397.92-.635 1.394-.716.912-.155 1.58.002 2.003.474.314.344.544.951.692 1.818.026.15.061.381.106.692.047.311.082.545.11.701.054.324.141.807.261 1.45.12.643.207 1.126.263 1.451m3.63-1.344c.05.29.005.552-.134.786a.878.878 0 0 1-.638.423.863.863 0 0 1-.746-.203 1.098 1.098 0 0 1-.371-.684 1.07 1.07 0 0 1 .132-.763c.136-.222.347-.358.633-.407a.902.902 0 0 1 .737.173c.21.165.34.389.388.675m-1.308-7.495c.209 1.226.31 2.363.305 3.41-.007.395-.003.986.01 1.772.014.192-.1.308-.337.349a.963.963 0 0 1-.288.019c-.082-.012-.145-.076-.19-.193-.543-1.402-.85-2.305-.918-2.708l-.668-3.917c-.032-.188-.02-.288.039-.298.087-.014.223-.024.406-.031.184-.006.322-.018.413-.034.092-.016.227-.05.405-.105.177-.055.31-.091.397-.106.063-.011.109.075.14.256.032.183.079.449.144.799s.112.612.142.787" fill="#fffffe"/><path d="M229.608 40.754c-2.39-5.473-2.27-11.042-.213-16.524 1.129-3.012 2.695-5.867 4.165-8.74.417-.816.328-1.16-.431-1.596-1.53-.875-3.006-1.84-4.785-2.942l20.158-8.974C244.128.07 239.426-.46 234.392.398c-7.451 1.271-13.217 5.183-17.3 11.735-3.963 6.323-5.301 13.26-4.013 20.814 1.3 7.63 4.839 13.75 10.615 18.358 5.989 4.783 12.747 6.532 20.276 5.248.198-.034.389-.077.585-.114-2.47-1.925-5.02-3.758-7.37-5.818-3.16-2.772-5.87-5.955-7.577-9.867" fill="#4783b7"/><path d="M265.29 24.043c-1.29-7.58-4.84-13.684-10.645-18.313a28.708 28.708 0 0 0-3.26-2.268l1.19 22.496c-1.796-1.113-3.341-2.01-4.815-3.008-.75-.508-1.118-.425-1.584.358-2.088 3.513-4.19 7.006-5.628 10.864-2.594 6.954-1.638 13.404 2.539 19.45.627.908 1.294 1.787 1.942 2.68l-.045.054c7.012-1.45 12.47-5.284 16.37-11.513 3.917-6.287 5.23-13.221 3.938-20.8m-20.518 32.564l.21-.251c-.141.029-.285.056-.428.083.072.056.146.11.218.168" fill="#4783b7"/></g></svg>